<?xml version="1.0" encoding="UTF-8"?>
<svg data-bbox="0 -0.002 807.567 776.635" xmlns="http://www.w3.org/2000/svg" viewBox="0 0 808 777" fill-rule="evenodd" clip-rule="evenodd" stroke-linejoin="round" stroke-miterlimit="2" data-type="ugc">
    <g>
        <path d="M172.633 640.869c23.1 18.14 41.482 48.045 66.785 85.933 11.31 15.002 22.803 26.876 32.972 36.258 21.436 14.92 36.572 16.196 49.88 10.283l87.737-46.237c10.93-6.904 15.27-16.476 11.909-29.166-4.043-8.962-10.885-16.959-20.427-25.402-6.505-5.265-15.724-7.3-26.239-9.115-5.949-.838-11.72-.828-17.385-.869-8.243-.058-15.79-1.84-21.456-6.369l-48.157-41.252c-11.083-9.507-23.537-15.491-37.181-10.295-22.016 8.382-49.26 24.028-78.438 36.231z" fill="#ff7000"/>
        <path d="M625.502 5.207c-9.694-8.024-18.122-6.09-23.728 1.13L531.179 81.12c-13.696 20.897 6.774 41.76 25.879 30.508l80.819-66.705c6.406-5.333 13.103-11.178 3.938-22.864L625.502 5.207z" fill="#ff7000"/>
        <path d="M750.778 172.642c-6.721-10.639-15.333-11.42-22.905-6.298l-90.335 49.15c-19.51 15.608-6.535 41.798 15.12 37.039l97.544-38.296c7.746-3.079 15.928-6.554 10.846-20.509l-10.27-21.086z" fill="#ff7000"/>
        <path d="M804.524 375.006c-2.989-12.224-10.905-15.703-19.713-13.256l-101.276 17.87c-23.461 8.593-19.489 37.55 2.556 39.924l104.658-5.285c8.323-.456 17.185-1.148 16.806-15.995l-3.031-23.257z" fill="#ff7000"/>
        <path d="M590.333 592.687C427.804 672.217 175.731 90.29 343.122 42.219 492.249-.608 731.036 512.347 590.333 592.687zM366.422 113.571c-66.577 47.605 90.004 421.676 189.285 410.996 63.499-80.387-96.959-404.533-189.285-410.996z" fill="#ff7000"/>
        <path d="M259.306 144.259c-25.128 84.979-78.362 140.834-126.417 171.67-31.32 20.098-65.992 33.862-100.769 48.976-77.891 46.715-4.302 277.362 115.586 252.112l101.603-44.92c64.158-25.82 132.135-18.67 206.213 10.12-23.761-17.43-43.29-41.76-62.968-70.22-44.155-10.23-86.953-11.41-127.979-.79-46.116-23.15-89.578-106.101-75.469-168.087 35.468-33.184 59.372-54.692 80.513-96.057-8.35-32.947-11.395-65.583-10.529-97.99.043-1.595.095-3.19.156-4.785" fill="#ff7000"/>
        <path d="M405.034 271.099c9.99 40.28 28.864 80.374 55.328 122.072 29.514-19.249 35.15-48.839 16.904-88.769-18.278-31.769-42.739-41.504-72.232-33.303z" fill="#ff7000"/>
    </g>
</svg>
